<svg width="50" height="50" fill="none" xmlns="http://www.w3.org/2000/svg"><g filter="url(#filter0_d)"><circle cx="25" cy="25" r="15" transform="rotate(-90 25 25)" fill="#fff"/></g><path d="M25.532 28.782l6.069-6.068a.74.74 0 00.217-.527.74.74 0 00-.218-.528l-.446-.447a.747.747 0 00-1.055 0l-5.096 5.096-5.101-5.101a.741.741 0 00-.528-.218c-.2 0-.387.077-.527.218l-.447.447a.74.74 0 00-.218.527c0 .2.077.387.218.527l6.074 6.075c.14.14.329.217.529.217s.389-.077.53-.218z" fill="#383838"/><defs><filter id="filter0_d" x="0" y="0" width="50" height="50" filterUnits="userSpaceOnUse" color-interpolation-filters="sRGB"><feFlood flood-opacity="0" result="BackgroundImageFix"/><feColorMatrix in="SourceAlpha" values="0 0 0 0 0 0 0 0 0 0 0 0 0 0 0 0 0 0 127 0"/><feOffset/><feGaussianBlur stdDeviation="5"/><feColorMatrix values="0 0 0 0 0 0 0 0 0 0 0 0 0 0 0 0 0 0 0.1 0"/><feBlend in2="BackgroundImageFix" result="effect1_dropShadow"/><feBlend in="SourceGraphic" in2="effect1_dropShadow" result="shape"/></filter></defs></svg>