<svg width="50" height="50" fill="none" xmlns="http://www.w3.org/2000/svg"><g filter="url(#filter0_d)"><circle cx="25" cy="25" r="15" transform="rotate(90 25 25)" fill="#fff"/></g><path d="M24.468 21.218l-6.069 6.068a.74.74 0 00-.217.527c0 .2.077.388.218.528l.446.447c.291.29.765.29 1.055 0l5.096-5.096 5.101 5.101c.14.14.328.218.528.218s.387-.077.527-.218l.447-.447a.74.74 0 00.218-.527.74.74 0 00-.218-.527l-6.074-6.075a.741.741 0 00-.529-.217c-.2 0-.389.077-.53.218z" fill="#383838"/><defs><filter id="filter0_d" x="0" y="0" width="50" height="50" filterUnits="userSpaceOnUse" color-interpolation-filters="sRGB"><feFlood flood-opacity="0" result="BackgroundImageFix"/><feColorMatrix in="SourceAlpha" values="0 0 0 0 0 0 0 0 0 0 0 0 0 0 0 0 0 0 127 0"/><feOffset/><feGaussianBlur stdDeviation="5"/><feColorMatrix values="0 0 0 0 0 0 0 0 0 0 0 0 0 0 0 0 0 0 0.1 0"/><feBlend in2="BackgroundImageFix" result="effect1_dropShadow"/><feBlend in="SourceGraphic" in2="effect1_dropShadow" result="shape"/></filter></defs></svg>