<svg width="26" height="26" fill="none" xmlns="http://www.w3.org/2000/svg"><rect width="26" height="26" rx="4" fill="#F71412"/><g clip-path="url(#clip0)" fill="#fff"><path d="M12.68 9.727A2.73 2.73 0 009.952 7a2.73 2.73 0 00-2.727 2.727 2.73 2.73 0 002.727 2.726 2.73 2.73 0 002.726-2.726zm-4.1 0c0-.757.616-1.373 1.373-1.373.756 0 1.372.616 1.372 1.373 0 .756-.616 1.372-1.372 1.372A1.374 1.374 0 018.58 9.727zm7.468 3.82a2.73 2.73 0 00-2.727 2.726A2.73 2.73 0 0016.048 19a2.73 2.73 0 002.726-2.727 2.73 2.73 0 00-2.726-2.726zm0 4.098a1.374 1.374 0 01-1.372-1.372c0-.756.615-1.372 1.372-1.372.756 0 1.372.616 1.372 1.372 0 .757-.616 1.372-1.372 1.372zm.084-10.295a.735.735 0 00-.999.284L9.567 17.63a.734.734 0 001.283.714l5.566-9.995a.734.734 0 00-.284-.998z"/></g><defs><clipPath id="clip0"><path fill="#fff" transform="translate(7 7)" d="M0 0h12v12H0z"/></clipPath></defs></svg>