<svg width="50" height="50" fill="none" xmlns="http://www.w3.org/2000/svg"><g filter="url(#filter0_d)"><circle cx="25" cy="25" r="15" fill="#fff"/></g><path d="M30.066 24.468L23.998 18.4a.74.74 0 00-.527-.218.74.74 0 00-.528.218l-.447.447a.747.747 0 000 1.054l5.096 5.096-5.101 5.102a.741.741 0 00-.218.527c0 .2.077.387.218.528l.446.446a.74.74 0 00.528.218.74.74 0 00.527-.218l6.074-6.073a.741.741 0 00.218-.53c0-.2-.077-.388-.218-.529z" fill="#383838"/><defs><filter id="filter0_d" x="0" y="0" width="50" height="50" filterUnits="userSpaceOnUse" color-interpolation-filters="sRGB"><feFlood flood-opacity="0" result="BackgroundImageFix"/><feColorMatrix in="SourceAlpha" values="0 0 0 0 0 0 0 0 0 0 0 0 0 0 0 0 0 0 127 0"/><feOffset/><feGaussianBlur stdDeviation="5"/><feColorMatrix values="0 0 0 0 0 0 0 0 0 0 0 0 0 0 0 0 0 0 0.1 0"/><feBlend in2="BackgroundImageFix" result="effect1_dropShadow"/><feBlend in="SourceGraphic" in2="effect1_dropShadow" result="shape"/></filter></defs></svg>